<svg width="40" height="40" viewBox="0 0 40 40" fill="none" xmlns="http://www.w3.org/2000/svg">
    <path opacity="0.504232" fill-rule="evenodd" clip-rule="evenodd" d="M15.4092 4.08592C15.4092 2.88331 16.6052 2.06824 17.6893 2.53209L20.5262 3.74593C20.9604 3.93171 21.2961 4.29888 21.4484 4.75462L22.5763 8.12913C22.7579 8.67238 23.1974 9.08351 23.7423 9.21991L35.5456 12.1746C36.2821 12.359 36.8001 13.0345 36.8001 13.8105V27.9066C36.8001 29.0397 35.7289 29.8495 34.6708 29.5163L16.5707 23.8161C15.8803 23.5987 15.4092 22.9458 15.4092 22.2064V4.08592Z" fill="#A2BFFF"/>
    <path opacity="0.8" fill-rule="evenodd" clip-rule="evenodd" d="M11.2954 7.45421C11.2954 6.25159 12.4914 5.43653 13.5755 5.90038L16.4124 7.11422C16.8466 7.3 17.1823 7.66717 17.3346 8.1229L18.4626 11.4974C18.6442 12.0407 19.0836 12.4518 19.6285 12.5882L31.4318 15.5429C32.1683 15.7273 32.6864 16.4028 32.6864 17.1788V31.2749C32.6864 32.408 31.6151 33.2178 30.557 32.8846L12.457 27.1844C11.7665 26.967 11.2954 26.3141 11.2954 25.5747V7.45421Z" fill="#A0BDFF"/>
    <path fill-rule="evenodd" clip-rule="evenodd" d="M7.18213 10.3172C7.18213 9.11463 8.37816 8.29957 9.46224 8.76342L12.2991 9.97725C12.7333 10.163 13.069 10.5302 13.2214 10.9859L14.3493 14.3605C14.5309 14.9037 14.9703 15.3148 15.5152 15.4512L27.3186 18.4059C28.055 18.5903 28.5731 19.2659 28.5731 20.0419V34.1379C28.5731 35.271 27.5018 36.0808 26.4437 35.7476L8.34368 30.0474C7.65326 29.83 7.18213 29.1771 7.18213 28.4378V10.3172Z" fill="#1A47FF"/>
    <path fill-rule="evenodd" clip-rule="evenodd" d="M3.29676 18.4149C2.85383 17.1304 4.00652 15.8671 5.28881 16.2317L23.5708 21.4294C24.1227 21.5863 24.5552 22.0257 24.7126 22.5894L28.1562 34.9255C28.3356 35.568 27.7472 36.1582 27.1232 35.9616L7.9739 29.931C7.47572 29.7742 7.07963 29.385 6.90616 28.8819L3.29676 18.4149Z" fill="#5287FF"/>
</svg>
